<?xml version="1.0" encoding="utf-8"?>
<!-- Generator: Adobe Illustrator 28.2.0, SVG Export Plug-In . SVG Version: 6.00 Build 0)  -->
<svg version="1.1" id="圖層_1" xmlns="http://www.w3.org/2000/svg" xmlns:xlink="http://www.w3.org/1999/xlink" x="0px" y="0px"
	 viewBox="0 0 800 800" style="enable-background:new 0 0 800 800;" xml:space="preserve">
<style type="text/css">
	.st0{fill:none;stroke:#C69C6D;stroke-width:50;stroke-linecap:round;stroke-linejoin:round;stroke-miterlimit:133.3333;}
</style>
<path class="st0" d="M400,533.3h33.3c22.2,0,66.7-13.3,66.7-66.7S455.6,400,433.3,400h-66.7c-22.2,0-66.7-13.3-66.7-66.7
	s44.4-66.7,66.7-66.7H400 M400,533.3H300 M400,533.3V600 M500,266.7H400 M400,266.7V200 M700,400c0,165.7-134.3,300-300,300
	c-165.7,0-300-134.3-300-300c0-165.7,134.3-300,300-300C565.7,100,700,234.3,700,400z"/>
</svg>
